<svg xmlns="http://www.w3.org/2000/svg" width="128" height="128" viewBox="0 0 128 128">
  <defs>
    <linearGradient id="g" x1="0" y1="0" x2="1" y2="1">
      <stop offset="0" stop-color="#ffc200"/>
      <stop offset="1" stop-color="#ffdd5e"/>
    </linearGradient>
  </defs>
  <rect x="8" y="8" width="112" height="112" rx="16" fill="url(#g)"/>
  <path d="M64 34c11 0 20 9 20 20v10h6a6 6 0 0 1 6 6v26a6 6 0 0 1-6 6H38a6 6 0 0 1-6-6V70a6 6 0 0 1 6-6h6V54c0-11 9-20 20-20zm12 30V54a12 12 0 1 0-24 0v10h24z" fill="#1a2042"/>
  <text x="64" y="108" text-anchor="middle" font-family="Arial, sans-serif" font-weight="700" font-size="16" fill="#1a2042">SSL</text>
</svg>